<svg xmlns="http://www.w3.org/2000/svg" version="1.1">
  <defs>
    <symbol id="logo" viewBox="0 0 817.74 90.2257">
      <g fill="currentColor">
        <path d="m118.503 0h5.64445v1.41112h-5.64445z"/><path d="m112.889 12.6878h5.64446v1.41112h-5.64446z"/><path d="m118.533 10.5711h.70555v.70555h1.41112v-2.82222h.70555v-1.41112h-.70555v-2.82222h-1.41112v.70556h-.70555v-1.41112h.70555v-.70555h2.11667v1.41111h.70555v2.82222h1.41111v1.41112h-1.41111v2.82222h-.70555v1.41111h-2.11667v-.70555h-.70555z"/><path d="m128.411 11.2767h-.70555v-1.41111h-.70556v-1.41111h-.70555v-1.41112h-.70556v-1.41111h-.70556v-1.41111h-.70555v-1.41111h1.41111v1.41111h.70556v1.41111h.70555v1.41111h.70556v1.41112h.70556v1.41111h.70555v1.41111h.70556v2.82223h-.70556v-1.41112h-.70555z"/><path d="m564.445 12.6875v1.41211h22.5762v-1.41211h-16.9316zm22.5781 0v1.41211h11.2871v-1.41211h-5.64258zm11.2891 0v1.41211h11.2871v-1.41211h-5.64453zm11.2891 0v1.41211h11.2871v-1.41211h-5.64453zm11.2891 0v1.41211h11.2871v-1.41211h-5.64453z"/><path d="m5.64453 25.375v1.41211h39.5117v-1.41211z"/><path d="m95.9551 25.375v1.41211h16.9336v-1.41211h-11.2891z"/><path d="m117.828 25.3756h-2.11667v-1.41111h-.70556v-2.82222h-1.41111v-1.41112h1.41111v-2.82222h.70556v-1.41111h2.11667v.70555h.70555v1.41112h-.70555v-.70556h-1.41112v2.82222h-.70555v1.41112h.70555v2.82222h1.41112v-.70555h.70555v1.41111h-.70555z"/><path d="m118.533 25.375v1.41211h11.2891v-1.41211h-5.64454z"/><path d="m129.822 15.498v1.41016h.70507v1.41211h.70704v1.41016h.70507v1.41211h.70508v1.41016h.70508v1.41211h.70703v1.41016h.70508v1.41211h51.5039v-1.41211h-50.7988v-1.41016h-.70508v-1.41211h-.70508v-1.41016h-.70703v-1.41211h-.70508v-1.41016h-.70508v-1.41211h-.70507v-1.41016zm56.4453 9.87695v1.41211h11.2871v-1.41211h-5.64453zm11.2891 0v1.41211h5.64453v-1.41211z"/><path d="m208.721 25.375v1.41211h11.2871v-1.41211h-5.64458zm11.2891 0v1.41211h39.5098v-1.41211h-33.8672z"/><path d="m265.289 25.375v1.41211h62.0898v-1.41211h-56.4453z"/><path d="m338.668 25.375v1.41211h84.666v-1.41211h-79.0234z"/><path d="m428.979 25.375v1.41211h33.8652v-1.41211h-28.2207zm33.8672 0v1.41211h11.2871v-1.41211h-5.64453zm11.2891 0v1.41211h11.2871v-1.41211h-5.64454zm11.2891 0v1.41211h11.2871v-1.41211h-5.64453zm11.2891 0v1.41211h11.2871v-1.41211h-5.64453zm11.2891 0v1.41211h5.64258v-1.41211z"/><path d="m530.578 25.375v1.41211h33.8672v-1.41211h-28.2226z"/><path d="m569.384 25.3756h-2.11667v-1.41111h-.70556v-2.82222h-1.41111v-1.41112h1.41111v-2.82222h.70556v-1.41111h2.11667v.70555h.70555v1.41112h-.70555v-.70556h-1.41112v2.82222h-.70555v1.41112h.70555v2.82222h1.41112v-.70555h.70555v1.41111h-.70555z"/><path d="m570.089 25.3756h5.64445v1.41112h-5.64445z"/><path d="m630.768 15.498v1.41016h-.70508v1.41211h-.70703v1.41016h-.70508v1.41211h-.70508v1.41016h-.70508v1.41211h-.70703v1.41016h-5.64258v1.41211h6.34961v-1.41211h.70508v-1.41016h.70508v-1.41211h.70508v-1.41016h.70703v-1.41211h.70508v-1.41016h.70508v-1.41211h.70507v-1.41016zm-26.8125 9.87695v1.41211h5.64453v-1.41211zm5.64648 0v1.41211h11.2871v-1.41211h-5.64453z"/><path d="m632.178 25.375v1.41211h101.602v-1.41211h-95.957z"/><path d="m0 38.0634v-1.41112h.705556v-1.41111h.705557v-1.41111h.705556v-1.41111h.705556v-1.41112h.705557v-1.41111h.705556v-1.41111h1.41111v1.41111h-.705556v1.41111h-.705556v1.41112h-.705556v1.41111h-.705557v1.41111h-.705556v1.41111h-.705556v1.41112h-.705557v1.41111h-.705556z"/><path d="m49.3889 36.6523h-.70555v-1.41111h-.70556v-1.41111h-.70555v-1.41111h-.70556v-1.41112h-.70556v-1.41111h-.70555v-1.41111h1.41111v1.41111h.70556v1.41111h.70555v1.41112h.70556v1.41111h.70555v1.41111h.70556v1.41111h.70556v2.82223h-.70556v-1.41111h-.70556z"/><path d="m56.4453 38.0625v1.41211h39.5098v-1.41211h-33.8652z"/><path d="m100.189 36.6523h-.705555v-1.41111h-.70556v-1.41111h-.70556v-1.41111h-.70555v-1.41112h-.70556v-1.41111h-.70555v-1.41111h1.41111v1.41111h.70555v1.41111h.70556v1.41112h.70556v1.41111h.705555v1.41111h.70556v1.41111h.70556v2.82223h-.70556v-1.41111h-.70556z"/><path d="m139.7 36.6523h-.70556v-1.41111h-.70555v-1.41111h-.70555v-1.41111h-.70556v-1.41112h-.70555v-1.41111h-.70556v-1.41111h1.41111v1.41111h.70556v1.41111h.70556v1.41112h.70555v1.41111h.70556v1.41111h.70555v1.41111h.70555v2.82223h-.70555v-1.41111h-.70555z"/><path d="m156.633 36.6523h-.70554v-1.41111h-.70556v-1.41111h-.70555v-1.41111h-.70556v-1.41112h-.70556v-1.41111h-.70555v-1.41111h1.41111v1.41111h.70556v1.41111h.70555v1.41112h.70556v1.41111h.70555v1.41111h.70556v1.41111h.70556v2.82223h-.70556v-1.41111h-.70556z"/><path d="m207.434 36.6523h-.70555v-1.41111h-.70556v-1.41111h-.70556v-1.41111h-.70555v-1.41112h-.70556v-1.41111h-.70555v-1.41111h1.41111v1.41111h.70555v1.41111h.70556v1.41112h.70556v1.41111h.70555v1.41111h.70556v1.41111h.70556v2.82223h-.70556v-1.41111h-.70556z"/><path d="m213.078 36.6523h-.70555v-1.41111h-.70556v-1.41111h-.70556v-1.41111h-.70555v-1.41112h-.70556v-1.41111h-.70555v-1.41111h1.41111v1.41111h.70555v1.41111h.70556v1.41112h.70556v1.41111h.70555v1.41111h.70556v1.41111h.70556v2.82223h-.70556v-1.41111h-.70556z"/><path d="m254 38.0634v-1.41112h.70556v-1.41111h.70556v-1.41111h.70556v-1.41111h.70556v-1.41112h.70556v-1.41111h.70555v-1.41111h1.41111v1.41111h-.70555v1.41111h-.70556v1.41112h-.70555v1.41111h-.70556v1.41111h-.70556v1.41111h-.70556v1.41112h-.70556v1.41111h-.70556z"/><path d="m282.223 38.0625v1.41211h16.9336v-1.41211h-11.2891z"/><path d="m321.734 38.0634v-1.41112h.70555v-1.41111h.70556v-1.41111h.70556v-1.41111h.70555v-1.41112h.70556v-1.41111h.70556v-1.41111h1.41111v1.41111h-.70556v1.41111h-.70555v1.41112h-.70556v1.41111h-.70556v1.41111h-.70555v1.41111h-.70556v1.41112h-.70556v1.41111h-.70555z"/><path d="m337.256 28.1855v1.41211h-.70508v1.41016h-.70508v1.41211h-.70508v1.41016h-.70703v1.41016h-.70507v1.41211h-.70508v1.41016 1.41211h.70508v-1.41211h.70507v-1.41016h.70703v-1.41211h.70508v-1.41016h.70508v-1.41016h.70508v-1.41211h.70508v-1.41016h.70703v-1.41211zm-9.87695 9.87695v1.41211h5.64257v-1.41211z"/><path d="m421.922 28.1855v1.41211h-.70508v1.41016h-.70508v1.41211h-.70508v1.41016h-.70703v1.41016h-.70508v1.41211h-.70508v1.41016h-45.1562v1.41211h45.8613v-1.41211h.70508v-1.41016h.70703v-1.41211h.70508v-1.41016h.70508v-1.41016h.70508v-1.41211h.70507v-1.41016h.70703v-1.41211z"/><path d="m423.334 38.0634v-1.41112h.70555v-1.41111h.70556v-1.41111h.70555v-1.41111h.70556v-1.41112h.70556v-1.41111h.70555v-1.41111h1.41112v1.41111h-.70556v1.41111h-.70556v1.41112h-.70555v1.41111h-.70556v1.41111h-.70556v1.41111h-.70555v1.41112h-.70556v1.41111h-.70555z"/><path d="m468.488 38.0625v1.41211h5.64453v-1.41211zm5.64649 0v1.41211h11.2871v-1.41211h-5.64454z"/><path d="m508.001 38.0634v-1.41112h.70556v-1.41111h.70556v-1.41111h.70555v-1.41111h.70556v-1.41112h.70556v-1.41111h.70555v-1.41111h1.41111v1.41111h-.70555v1.41111h-.70556v1.41112h-.70555v1.41111h-.70556v1.41111h-.70556v1.41111h-.70555v1.41112h-.70556v1.41111h-.70556z"/><path d="m513.645 38.0634h5.64445v1.41111h-5.64445z"/><path d="m524.934 38.0634v-1.41112h.70556v-1.41111h.70556v-1.41111h.70555v-1.41111h.70556v-1.41112h.70555v-1.41111h.70556v-1.41111h1.41111v1.41111h-.70555v1.41111h-.70556v1.41112h-.70556v1.41111h-.70555v1.41111h-.70556v1.41111h-.70555v1.41112h-.70556v1.41111h-.70556z"/><path d="m570.09 38.0625v1.41211h11.2891v-1.41211h-5.64453z"/><path d="m625.123 36.6523h-.70556v-1.41111h-.70555v-1.41111h-.70556v-1.41111h-.70556v-1.41112h-.70555v-1.41111h-.70556v-1.41111h1.41111v1.41111h.70556v1.41111h.70556v1.41112h.70555v1.41111h.70556v1.41111h.70556v1.41111h.70555v2.82223h-.70555v-1.41111h-.70556z"/><path d="m626.534 38.0634v-1.41112h.70556v-1.41111h.70555v-1.41111h.70556v-1.41111h.70556v-1.41112h.70555v-1.41111h.70556v-1.41111h1.41111v1.41111h-.70555v1.41111h-.70556v1.41112h-.70556v1.41111h-.70555v1.41111h-.70556v1.41111h-.70556v1.41112h-.70555v1.41111h-.70556z"/><path d="m671.689 38.0625v1.41211h11.2891v-1.41211h-5.64454z"/><path d="m728.134 38.0634v-1.41112h.70556v-1.41111h.70555v-1.41111h.70556v-1.41111h.70556v-1.41112h.70555v-1.41111h.70556v-1.41111h1.41111v1.41111h-.70555v1.41111h-.70556v1.41112h-.70556v1.41111h-.70555v1.41111h-.70556v1.41111h-.70556v1.41112h-.70555v1.41111h-.70556z"/><path d="m733.777 38.0625v1.41211h5.64454v-1.41211zm5.64649 0v1.41211h5.64453v-1.41211z"/><path d="m752.821 35.2412h1.41111v2.82223h-1.41111z"/><path d="m757.062 32.419h.70556v-1.41112h2.11667v-2.82222h1.41111v9.87779h-3.52778v-1.41112h-.70556zm1.41112 4.23333h1.41111v-4.23333h-1.41111z"/><path d="m763.412 31.0078h2.82223v1.41112h.70555v2.82222h-2.82222v1.41111h2.11667v1.41112h-2.82223v-1.41112h-.70556v-4.23333h.70556zm2.11667 1.41112h-1.41111v1.41111h1.41111z"/><path d="m769.056 38.0634h-1.41111v-7.05557h2.11667v1.41112h.70555v-1.41112h1.41112v1.41112h.70555v5.64445h-1.41111v-4.23334h-.70556v1.41111h-.70555v-1.41111h-.70556z"/><path d="m773.995 32.419h.70556v-1.41112h2.82223v1.41112h.70555v4.23333h-.70555v1.41112h-2.82223v-1.41112h-.70556zm2.82223 0h-1.41111v4.23333h1.41111z"/><path d="m779.64 31.0078h4.23334v1.41112h-.70555v1.41111h-.70556v1.41111h-.70556v1.41111h2.11667v1.41112h-4.23334v-1.41112h.70556v-1.41111h.70556v-1.41111h.70555v-1.41111h-2.11667z"/><path d="m785.284 32.419h.70556v-1.41112h2.82223v1.41112h.70555v4.23333h-.70555v1.41112h-2.82223v-1.41112h-.70556zm2.82223 0h-1.41111v4.23333h1.41111z"/><path d="m790.929 32.419h.70556v-1.41112h2.82222v1.41112h.70556v4.23333h-.70556v1.41112h-2.82222v-1.41112h-.70556zm2.82223 0h-1.41112v4.23333h1.41112z"/><path d="m797.977 35.2412h1.41111v2.82223h-1.41111z"/><path d="m802.217 32.419h.70556v-1.41112h2.82222v1.41112h.70556v4.23333h-.70556v1.41112h-2.82222v-1.41112h-.70556zm2.82223 0h-1.41111v4.23333h1.41111z"/><path d="m809.273 38.0634h-1.41112v-7.05557h3.52778v1.41112h.70556v1.41111h-1.41111v-1.41111h-1.41111z"/><path d="m814.212 31.0078h3.52778v7.05557h-.70555v1.41111h-2.82223v-1.41111h2.11667v-1.41112h-2.11667v-1.41111h-.70556v-2.82222h.70556zm2.11667 4.23334v-2.82222h-1.41111v2.82222z"/><path d="m4.23334 49.3401h-.705556v-1.41111h-.705557v-1.41111h-.705556v-1.41111h-.705556v-1.41112h-.705557v-1.41111h-.705556v-1.41111h1.41111v1.41111h.705556v1.41111h.705556v1.41112h.705557v1.41111h.705556v1.41111h.705556v1.41111h.705556v2.82223h-.705556v-1.41111h-.705556z"/><path d="m55.0334 49.3401h-.70556v-1.41111h-.70556v-1.41111h-.70555v-1.41111h-.70556v-1.41112h-.70556v-1.41111h-.70555v-1.41111h1.41111v1.41111h.70556v1.41111h.70555v1.41112h.70556v1.41111h.70556v1.41111h.70555v1.41111h.70556v2.82223h-.70556v-1.41111h-.70555z"/><path d="m60.6778 49.3401h-.70556v-1.41111h-.70556v-1.41111h-.70555v-1.41111h-.70556v-1.41112h-.70555v-1.41111h-.70556v-1.41111h1.41111v1.41111h.70556v1.41111h.70555v1.41112h.70556v1.41111h.70556v1.41111h.70555v1.41111h.70556v2.82223h-.70556v-1.41111h-.70555z"/><path d="m105.833 49.3401h-.70556v-1.41111h-.70555v-1.41111h-.70556v-1.41111h-.70556v-1.41112h-.70555v-1.41111h-.70556v-1.41111h1.41111v1.41111h.70556v1.41111h.70556v1.41112h.70555v1.41111h.70556v1.41111h.70555v1.41111h.70556v2.82223h-.70556v-1.41111h-.70555z"/><path d="m162.278 49.3401h-.70555v-1.41111h-.70556v-1.41111h-.70555v-1.41111h-.70556v-1.41112h-.70556v-1.41111h-.70555v-1.41111h1.41111v1.41111h.70556v1.41111h.70555v1.41112h.70556v1.41111h.70555v1.41111h.70556v1.41111h.70556v2.82223h-.70556v-1.41111h-.70556z"/><path d="m213.078 49.3401h-.70555v-1.41111h-.70556v-1.41111h-.70556v-1.41111h-.70555v-1.41112h-.70556v-1.41111h-.70555v-1.41111h1.41111v1.41111h.70555v1.41111h.70556v1.41112h.70556v1.41111h.70555v1.41111h.70556v1.41111h.70556v2.82223h-.70556v-1.41111h-.70556z"/><path d="m218.722 49.3401h-.70556v-1.41111h-.70555v-1.41111h-.70556v-1.41111h-.70556v-1.41112h-.70555v-1.41111h-.70556v-1.41111h1.41111v1.41111h.70556v1.41111h.70556v1.41112h.70555v1.41111h.70556v1.41111h.70555v1.41111h.70556v2.82223h-.70556v-1.41111h-.70555z"/><path d="m248.356 50.7512v-1.41112h.70556v-1.41111h.70555v-1.41111h.70556v-1.41111h.70556v-1.41112h.70555v-1.41111h.70556v-1.41111h1.41111v1.41111h-.70555v1.41111h-.70556v1.41112h-.70556v1.41111h-.70555v1.41111h-.70556v1.41111h-.70556v1.41112h-.70555v1.41111h-.70556z"/><path d="m276.578 50.7512v-1.41112h.70556v-1.41111h.70555v-1.41111h.70556v-1.41111h.70555v-1.41112h.70556v-1.41111h.70556v-1.41111h1.41111v1.41111h-.70556v1.41111h-.70555v1.41112h-.70556v1.41111h-.70556v1.41111h-.70555v1.41111h-.70556v1.41112h-.70555v1.41111h-.70556z"/><path d="m282.222 49.3401h.70556v-1.41111h.70555v-1.41111h-1.41111v-2.82223h.70556v1.41112h.70555v1.41111h.70556v-1.41111h-.70556v-1.41112h-.70555v-1.41111h1.41111v2.82223h.70555v-1.41112h.70556v-1.41111h.70556v-1.41111h1.41111v1.41111h-.70556v1.41111h-.70555v1.41112h-.70556v1.41111h1.41111v2.82222h-.70555v-1.41111h-.70556v-1.41111h-.70556v1.41111h.70556v1.41111h.70556v1.41112h-1.41112v-2.82223h-.70555v1.41111h-.70556v1.41112h-.70555v1.41111h-.70556z"/><path d="m287.867 48.6345h.70556v.70555h1.41111v-2.82222h.70555v-1.41111h-.70555v-2.82223h-1.41111v.70556h-.70556v-1.41111h.70556v-.70556h2.11666v1.41111h.70556v2.82223h1.41111v1.41111h-1.41111v2.82222h-.70556v1.41112h-2.11666v-.70556h-.70556z"/><path d="m331.611 40.873v1.41211h-.70508v1.41016h-.70508v1.41211h-.70703v1.41016h-.70508v1.41211h-.70508v1.41016h-.70507v1.41211h-33.8672v1.41016h34.5723v-1.41016h.70508v-1.41211h.70508v-1.41016h.70703v-1.41211h.70508v-1.41016h.70508v-1.41211h.70508v-1.41016h.70507v-1.41211z"/><path d="m333.023 50.7512h5.64446v1.41111h-5.64446z"/><path d="m377.473 50.7512h-2.11667v-1.41112h-.70556v-2.82222h-1.41111v-1.41111h1.41111v-2.82223h.70556v-1.41111h2.11667v.70556h.70555v1.41111h-.70555v-.70556h-1.41112v2.82223h-.70555v1.41111h.70555v2.82222h1.41112v-.70555h.70555v1.41111h-.70555z"/><path d="m378.178 49.3401h.70555v-1.41111h.70556v-1.41111h-1.41111v-2.82223h.70555v1.41112h.70556v1.41111h.70556v-1.41111h-.70556v-1.41112h-.70556v-1.41111h1.41112v2.82223h.70555v-1.41112h.70556v-1.41111h.70555v-1.41111h1.41112v1.41111h-.70556v1.41111h-.70556v1.41112h-.70555v1.41111h1.41111v2.82222h-.70556v-1.41111h-.70555v-1.41111h-.70556v1.41111h.70556v1.41111h.70555v1.41112h-1.41111v-2.82223h-.70555v1.41111h-.70556v1.41112h-.70556v1.41111h-.70555z"/><path d="m383.822 50.752v1.41016h45.1562v-1.41016h-39.5117z"/><path d="m433.212 49.3401h-.70555v-1.41111h-.70556v-1.41111h-.70556v-1.41111h-.70555v-1.41112h-.70556v-1.41111h-.70555v-1.41111h1.41111v1.41111h.70555v1.41111h.70556v1.41112h.70556v1.41111h.70555v1.41111h.70556v1.41111h.70556v2.82223h-.70556v-1.41111h-.70556z"/><path d="m473.428 50.7512h-2.11667v-1.41112h-.70556v-2.82222h-1.41111v-1.41111h1.41111v-2.82223h.70556v-1.41111h2.11667v.70556h.70556v1.41111h-.70556v-.70556h-1.41111v2.82223h-.70556v1.41111h.70556v2.82222h1.41111v-.70555h.70556v1.41111h-.70556z"/><path d="m474.134 49.3401h.70556v-1.41111h.70555v-1.41111h-1.41111v-2.82223h.70556v1.41112h.70555v1.41111h.70556v-1.41111h-.70556v-1.41112h-.70555v-1.41111h1.41111v2.82223h.70556v-1.41112h.70555v-1.41111h.70556v-1.41111h1.41111v1.41111h-.70555v1.41111h-.70556v1.41112h-.70556v1.41111h1.41112v2.82222h-.70556v-1.41111h-.70556v-1.41111h-.70555v1.41111h.70555v1.41111h.70556v1.41112h-1.41111v-2.82223h-.70556v1.41111h-.70556v1.41112h-.70555v1.41111h-.70556z"/><path d="m479.778 50.7512v-1.41112h.70556v-1.41111h.70556v-1.41111h.70555v-1.41111h.70556v-1.41112h.70556v-1.41111h.70555v-1.41111h1.41111v1.41111h-.70555v1.41111h-.70556v1.41112h-.70555v1.41111h-.70556v1.41111h-.70556v1.41111h-.70555v1.41112h-.70556v1.41111h-.70556z"/><path d="m529.167 49.3401h-.70556v-1.41111h-.70555v-1.41111h-.70556v-1.41111h-.70555v-1.41112h-.70556v-1.41111h-.70556v-1.41111h1.41112v1.41111h.70555v1.41111h.70556v1.41112h.70555v1.41111h.70556v1.41111h.70556v1.41111h.70555v2.82223h-.70555v-1.41111h-.70556z"/><path d="m575.734 49.3401h.70556v-1.41111h.70556v-1.41111h-1.41112v-2.82223h.70556v1.41112h.70556v1.41111h.70555v-1.41111h-.70555v-1.41112h-.70556v-1.41111h1.41111v2.82223h.70556v-1.41112h.70555v-1.41111h.70556v-1.41111h1.41111v1.41111h-.70555v1.41111h-.70556v1.41112h-.70556v1.41111h1.41112v2.82222h-.70556v-1.41111h-.70556v-1.41111h-.70555v1.41111h.70555v1.41111h.70556v1.41112h-1.41111v-2.82223h-.70556v1.41111h-.70555v1.41112h-.70556v1.41111h-.70556z"/><path d="m581.378 48.6345h.70556v.70555h1.41111v-2.82222h.70556v-1.41111h-.70556v-2.82223h-1.41111v.70556h-.70556v-1.41111h.70556v-.70556h2.11667v1.41111h.70555v2.82223h1.41112v1.41111h-1.41112v2.82222h-.70555v1.41112h-2.11667v-.70556h-.70556z"/><path d="m630.767 49.3401h-.70556v-1.41111h-.70555v-1.41111h-.70556v-1.41111h-.70556v-1.41112h-.70555v-1.41111h-.70556v-1.41111h1.41111v1.41111h.70556v1.41111h.70556v1.41112h.70555v1.41111h.70556v1.41111h.70556v1.41111h.70555v2.82223h-.70555v-1.41111h-.70556z"/><path d="m666.045 50.7512v-1.41112h.70556v-1.41111h.70555v-1.41111h.70556v-1.41111h.70556v-1.41112h.70555v-1.41111h.70556v-1.41111h1.41111v1.41111h-.70556v1.41111h-.70555v1.41112h-.70556v1.41111h-.70555v1.41111h-.70556v1.41111h-.70556v1.41112h-.70555v1.41111h-.70556z"/><path d="m671.69 49.3401h.70556v-1.41111h.70555v-1.41111h-1.41111v-2.82223h.70556v1.41112h.70555v1.41111h.70556v-1.41111h-.70556v-1.41112h-.70555v-1.41111h1.41111v2.82223h.70556v-1.41112h.70555v-1.41111h.70556v-1.41111h1.41111v1.41111h-.70556v1.41111h-.70555v1.41112h-.70556v1.41111h1.41111v2.82222h-.70555v-1.41111h-.70556v-1.41111h-.70555v1.41111h.70555v1.41111h.70556v1.41112h-1.41111v-2.82223h-.70556v1.41111h-.70556v1.41112h-.70555v1.41111h-.70556z"/><path d="m677.334 48.6345h.70556v.70555h1.41111v-2.82222h.70556v-1.41111h-.70556v-2.82223h-1.41111v.70556h-.70556v-1.41111h.70556v-.70556h2.11667v1.41111h.70555v2.82223h1.41111v1.41111h-1.41111v2.82222h-.70555v1.41112h-2.11667v-.70556h-.70556z"/><path d="m726.723 40.873v1.41211h-.70508v1.41016h-.70508v1.41211h-.70508v1.41016h-.70703v1.41211h-.70508v1.41016h-.70508v1.41211h-39.5117v1.41016h40.2168v-1.41016h.70508v-1.41211h.70703v-1.41016h.70508v-1.41211h.70508v-1.41016h.70508v-1.41211h.70703v-1.41016h.70508v-1.41211z"/><path d="m728.134 50.7512h5.64445v1.41111h-5.64445z"/><path d="m739.423 50.7512v-1.41112h.70556v-1.41111h.70555v-1.41111h.70556v-1.41111h.70555v-1.41112h.70556v-1.41111h.70556v-1.41111h1.41111v1.41111h-.70556v1.41111h-.70555v1.41112h-.70556v1.41111h-.70556v1.41111h-.70555v1.41111h-.70556v1.41112h-.70555v1.41111h-.70556z"/><path d="m9.87779 62.0279h-.705556v-1.41111h-.705557v-1.41111h-.705556v-1.41111h-.705556v-1.41112h-.705556v-1.41111h-.705557v-1.41111h1.41111v1.41111h.705556v1.41111h.705556v1.41112h.705557v1.41111h.705556v1.41111h.705556v1.41111h.705557v2.82223h-.705557v-1.41111h-.705556z"/><path d="m60.6778 62.0279h-.70556v-1.41111h-.70556v-1.41111h-.70555v-1.41111h-.70556v-1.41112h-.70555v-1.41111h-.70556v-1.41111h1.41111v1.41111h.70556v1.41111h.70555v1.41112h.70556v1.41111h.70556v1.41111h.70555v1.41111h.70556v2.82223h-.70556v-1.41111h-.70555z"/><path d="m64.2056 57.7945h-.70556v-1.41112h-.70556v-1.41111h-.70555v-1.41111h1.41111v1.41111h.70556v1.41111h.70555v1.41112h.70556v1.41111h-.70556v1.41111h-.70555v1.41111h-.70556v1.41112h-1.41111v-1.41112h.70555v-1.41111h.70556v-1.41111h.70556z"/><path d="m111.478 62.0279h-.70556v-1.41111h-.70555v-1.41111h-.70555v-1.41111h-.70556v-1.41112h-.70556v-1.41111h-.70555v-1.41111h1.41111v1.41111h.70556v1.41111h.70555v1.41112h.70556v1.41111h.70556v1.41111h.70555v1.41111h.70555v2.82223h-.70555v-1.41111h-.70555z"/><path d="m167.922 62.0279h-.70556v-1.41111h-.70554v-1.41111h-.70556v-1.41111h-.70556v-1.41112h-.70555v-1.41111h-.70556v-1.41111h1.41111v1.41111h.70556v1.41111h.70556v1.41112h.70555v1.41111h.70556v1.41111h.70556v1.41111h.70554v2.82223h-.70554v-1.41111h-.70556z"/><path d="m218.722 62.0279h-.70556v-1.41111h-.70555v-1.41111h-.70556v-1.41111h-.70556v-1.41112h-.70555v-1.41111h-.70556v-1.41111h1.41111v1.41111h.70556v1.41111h.70556v1.41112h.70555v1.41111h.70556v1.41111h.70555v1.41111h.70556v2.82223h-.70556v-1.41111h-.70555z"/><path d="m222.25 57.7945h-.70556v-1.41112h-.70555v-1.41111h-.70556v-1.41111h1.41111v1.41111h.70556v1.41111h.70556v1.41112h.70555v1.41111h-.70555v1.41111h-.70556v1.41111h-.70556v1.41112h-1.41111v-1.41112h.70556v-1.41111h.70555v-1.41111h.70556z"/><path d="m242.711 63.439v-1.41112h.70556v-1.41111h.70555v-1.41111h.70556v-1.41111h.70556v-1.41112h.70555v-1.41111h.70556v-1.41111h1.41111v1.41111h-.70556v1.41111h-.70555v1.41112h-.70556v1.41111h-.70555v1.41111h-.70556v1.41111h-.70556v1.41112h-.70555v1.41111h-.70556z"/><path d="m287.867 63.439v-1.41112h.70556v-1.41111h.70555v-1.41111h.70556v-1.41111h.70555v-1.41112h.70556v-1.41111h.70556v-1.41111h1.41111v1.41111h-.70556v1.41111h-.70555v1.41112h-.70556v1.41111h-.70556v1.41111h-.70555v1.41111h-.70556v1.41112h-.70555v1.41111h-.70556z"/><path d="m342.9 62.0279h-.70556v-1.41111h-.70556v-1.41111h-.70555v-1.41111h-.70556v-1.41112h-.70556v-1.41111h-.70555v-1.41111h1.41111v1.41111h.70556v1.41111h.70555v1.41112h.70556v1.41111h.70556v1.41111h.70555v1.41111h.70556v2.82223h-.70556v-1.41111h-.70555z"/><path d="m378.178 63.439v-1.41112h.70555v-1.41111h.70556v-1.41111h.70556v-1.41111h.70555v-1.41112h.70556v-1.41111h.70555v-1.41111h1.41112v1.41111h-.70556v1.41111h-.70556v1.41112h-.70555v1.41111h-.70556v1.41111h-.70555v1.41111h-.70556v1.41112h-.70556v1.41111h-.70555z"/><path d="m438.856 62.0279h-.70555v-1.41111h-.70556v-1.41111h-.70556v-1.41111h-.70555v-1.41112h-.70556v-1.41111h-.70556v-1.41111h1.41112v1.41111h.70555v1.41111h.70556v1.41112h.70556v1.41111h.70555v1.41111h.70556v1.41111h.70556v2.82223h-.70556v-1.41111h-.70556z"/><path d="m474.134 63.439v-1.41112h.70556v-1.41111h.70555v-1.41111h.70556v-1.41111h.70556v-1.41112h.70555v-1.41111h.70556v-1.41111h1.41111v1.41111h-.70555v1.41111h-.70556v1.41112h-.70556v1.41111h-.70555v1.41111h-.70556v1.41111h-.70556v1.41112h-.70555v1.41111h-.70556z"/><path d="m534.812 62.0279h-.70556v-1.41111h-.70555v-1.41111h-.70556v-1.41111h-.70555v-1.41112h-.70556v-1.41111h-.70556v-1.41111h1.41112v1.41111h.70555v1.41111h.70556v1.41112h.70555v1.41111h.70556v1.41111h.70556v1.41111h.70555v2.82223h-.70555v-1.41111h-.70556z"/><path d="m575.734 63.439v-1.41112h.70556v-1.41111h.70556v-1.41111h.70555v-1.41111h.70556v-1.41112h.70555v-1.41111h.70556v-1.41111h1.41111v1.41111h-.70555v1.41111h-.70556v1.41112h-.70556v1.41111h-.70555v1.41111h-.70556v1.41111h-.70555v1.41112h-.70556v1.41111h-.70556z"/><path d="m636.412 62.0279h-.70556v-1.41111h-.70555v-1.41111h-.70556v-1.41111h-.70556v-1.41112h-.70555v-1.41111h-.70556v-1.41111h1.41111v1.41111h.70556v1.41111h.70556v1.41112h.70555v1.41111h.70556v1.41111h.70556v1.41111h.70555v2.82223h-.70555v-1.41111h-.70556z"/><path d="m677.334 63.439v-1.41112h.70556v-1.41111h.70555v-1.41111h.70556v-1.41111h.70556v-1.41112h.70555v-1.41111h.70556v-1.41111h1.41111v1.41111h-.70556v1.41111h-.70555v1.41112h-.70556v1.41111h-.70555v1.41111h-.70556v1.41111h-.70556v1.41112h-.70555v1.41111h-.70556z"/><path d="m733.779 53.5605v1.41211h.70508v1.41016h.70507v1.41211h.70508v1.41016h.70703v1.41211h.70508v1.41016h.70508v1.41211h.70508v1.41016h11.9941v-1.41016h-11.2871v-1.41211h-.70703v-1.41016h-.70508v-1.41211h-.70508v-1.41016h-.70508v-1.41211h-.70703v-1.41016h-.70508v-1.41211zm16.9336 9.87891v1.41016h5.64453v-1.41016z"/><path d="m11.2891 66.248v1.41211h.705079v1.41016h.705078v1.41211h.707031v1.41016h.705078v1.41211h.705078v1.41016h.705078v1.41211h.707032v1.41016h91.7226v-1.41016h.70508v-1.41211h.70508v-1.41016h.70508v-1.41211h.70703v-1.41016h.70508v-1.41211h.70507v-1.41016h1.41016v1.41016h.70508v1.41211h.70703v1.41016h.70508v1.41211h.70508v1.41016h.70507v1.41211h.70703v1.41016h46.5664v-1.41016h.70508v-1.41211h.70703v-1.41016h.70508v-1.41211h.70508v-1.41016h.70508v-1.41211h.70507v-1.41016h1.41211v1.41016h.70508v1.41211h.70703v1.41016h.70508v1.41211h.70508v1.41016h.70508v1.41211h.70703v1.41016h11.9922v-1.41016h-11.2871v-1.41211h-.70508v-1.41016h-.70703v-1.41211h-.70508v-1.41016h-.70508v-1.41211h-.70508v-1.41016h-.70703v-1.41211h-2.82226v1.41211h-.70508v1.41016h-.70508v1.41211h-.70508v1.41016h-.70703v1.41211h-.70508v1.41016h-.70508v1.41211h-45.1562v-1.41211h-.70508v-1.41016h-.70703v-1.41211h-.70507v-1.41016h-.70508v-1.41211h-.70508v-1.41016h-.70703v-1.41211h-2.82031v1.41211h-.70508v1.41016h-.70703v1.41211h-.70508v1.41016h-.70508v1.41211h-.70508v1.41016h-.70703v1.41211h-90.3105v-1.41211h-.705078v-1.41016h-.707032v-1.41211h-.705078v-1.41016h-.705078v-1.41211h-.705078v-1.41016h-.707031v-1.41211h-1.41016zm230.012 0v1.41211h-.70508v1.41016h-.70703v1.41211h-.70508v1.41016h-.70507v1.41211h-.70508v1.41016h-.70703v1.41211h-16.9316v1.41016h17.6387v-1.41016h.70508v-1.41211h.70507v-1.41016h.70508v-1.41211h.70703v-1.41016h.70508v-1.41211h.70508v-1.41016h1.41211v1.41016h.70508v1.41211h.70507v1.41016h.70508v1.41211h.70703v1.41016h.70508v1.41211h.70508v1.41016h85.3711v-1.41016h-84.666v-1.41211h-.70508v-1.41016h-.70508v-1.41211h-.70508v-1.41016h-.70703v-1.41211h-.70508v-1.41016h-.70507v-1.41211h-1.41211zm-55.0332 9.87891v1.41016h11.2871v-1.41016h-5.64453zm11.2891 0v1.41016h11.2871v-1.41016h-5.64453zm11.2891 0v1.41016h11.2871v-1.41016h-5.64453zm124.178 0v1.41016h11.2871v-1.41016h-5.64258z"/><path d="m344.312 66.248v1.41211h.70508v1.41016h.70508v1.41211h.70507v1.41016h.70704v1.41211h.70507v1.41016h.70508v1.41211h.70508v1.41016h86.0781v-1.41016h.70508v-1.41211h.70703v-1.41016h.70508v-1.41211h.70508v-1.41016h.70508v-1.41211h.70703v-1.41016h1.41016v1.41016h.70507v1.41211h.70508v1.41016h.70703v1.41211h.70508v1.41016h.70508v1.41211h.70508v1.41016h.70508v-2.82226h-.70508v-1.41016h-.70508v-1.41211h-.70508v-1.41016h-.70508v-1.41211h-.70703v-1.41016h-.70508v-1.41211h-2.82226v1.41211h-.70508v1.41016h-.70508v1.41211h-.70508v1.41016h-.70703v1.41211h-.70508v1.41016h-.70507v1.41211h-84.666v-1.41211h-.70703v-1.41016h-.70508v-1.41211h-.70508v-1.41016h-.70507v-1.41211h-.70704v-1.41016h-.70507v-1.41211h-1.41016zm190.498 0v1.41211h-.70508v1.41016h-.70508v1.41211h-.70508v1.41016h-.70703v1.41211h-.70508v1.41016h-.70508v1.41211h-22.5762v1.41016h23.2812v-1.41016h.70508v-1.41211h.70703v-1.41016h.70508v-1.41211h.70508v-1.41016h.70508v-1.41211h.70703v-1.41016h1.41015v1.41016h.70508v1.41211h.70703v1.41016h.70508v1.41211h.70508v1.41016h.70508v1.41211h.70703v1.41016h45.8594v-1.41016h-45.1543v-1.41211h-.70508v-1.41016h-.70703v-1.41211h-.70508v-1.41016h-.70508v-1.41211h-.70508v-1.41016h-.70703v-1.41211h-1.41015zm107.246 0v1.41211h-.70508v1.41016h-.70703v1.41211h-.70508v1.41016h-.70507v1.41211h-.70508v1.41016h-.70703v1.41211h-16.9316v1.41016h17.6387v-1.41016h.70508v-1.41211h.70507v-1.41016h.70508v-1.41211h.70703v-1.41016h.70508v-1.41211h.70508v-1.41016h.70508v-1.41211zm-196.145 9.87891v1.41016h16.9316v-1.41016h-11.2871zm16.9336 0v1.41016h11.2871v-1.41016h-5.64453zm11.2891 0v1.41016h11.2871v-1.41016h-5.64454zm11.2891 0v1.41016h11.2871v-1.41016h-5.64453zm11.2891 0v1.41016h11.2871v-1.41016h-5.64453zm90.3106 0v1.41016h11.2871v-1.41016h-5.64258zm11.2891 0v1.41016h11.2871v-1.41016h-5.64453zm11.2891 0v1.41016h11.2871v-1.41016h-5.64453z"/><path d="m643.467 76.127v1.41016h95.9551v-1.41016h-90.3106z"/><path d="m743.656 74.7157h-.70556v-1.41111h-.70556v-1.41112h-.70555v-1.41111h-.70556v-1.41111h-.70555v-1.41111h-.70556v-1.41112h1.41111v1.41112h.70556v1.41111h.70555v1.41111h.70556v1.41111h.70556v1.41112h.70555v1.41111h.70556v2.82222h-.70556v-1.41111h-.70555z"/><path d="m760.59 74.7157h-.70556v-1.41111h-.70556v-1.41112h-.70555v-1.41111h-.70556v-1.41111h-.70556v-1.41111h-.70555v-1.41112h1.41111v1.41112h.70556v1.41111h.70555v1.41111h.70556v1.41111h.70556v1.41112h.70555v1.41111h.70556v2.82222h-.70556v-1.41111h-.70555z"/><path d="m22.5781 78.9375v1.41016h.705078v1.41211h.705078v1.41016h.707031v1.41211h.705079v1.41016h.705078v1.41211h.705078v1.41016h.707031v1.41211h91.7207v-1.41211h.70508v-1.41016h.70703v-1.41211h.70508v-1.41016h.70508v-1.41211h.70507v-1.41016h.70704v-1.41211h1.41015v1.41211h.70508v1.41016h.70703v1.41211h.70508v1.41016h.70508v1.41211h.70508v1.41016h.70703v1.41211h23.2832v-1.41211h-22.5781v-1.41016h-.70508v-1.41211h-.70703v-1.41016h-.70508v-1.41211h-.70508v-1.41016h-.70508v-1.41211h-.70703v-1.41016h-2.82227v1.41016h-.70507v1.41211h-.70508v1.41016h-.70508v1.41211h-.70703v1.41016h-.70508v1.41211h-.70508v1.41016h-90.3105v-1.41016h-.705078v-1.41211h-.707031v-1.41016h-.705078v-1.41211h-.705078v-1.41016h-.705079v-1.41211h-.707031v-1.41016h-1.41016z"/><path d="m154.517 78.9368h1.41111v7.05557h-1.41111zm0 8.46668h1.41111v1.41111h-1.41111z"/><path d="m160.867 84.5812h-.70554v-1.41111h-.70556v5.64445h-1.41111v-9.87779h1.41111v1.41112h.70556v1.41111h.70554v1.41111h.70556v-4.23334h1.41111v9.87779h-1.41111v-2.82222h-.70556z"/><path d="m165.806 87.4035h2.82223v1.41111h-4.23334v-9.87779h4.23334v1.41112h-2.82223v2.82222h1.41111v1.41111h-1.41111z"/><path d="m171.45 84.5812h.70555v-1.41111h.70556v-2.82222h-2.82223v-1.41112h4.23334v4.23334h-.70556v1.41111h-.70555v4.23334h-1.41111z"/><path d="m174.978 88.8146h5.64446v1.41111h-5.64446z"/><path d="m180.623 78.9375v1.41016h.70507v1.41211h.70508v1.41016h.70703v1.41211h.70508v1.41016h.70508v1.41211h.70508v1.41016h.70703v1.41211h11.9922v-1.41211h-11.2871v-1.41016h-.70508v-1.41211h-.70703v-1.41016h-.70508v-1.41211h-.70508v-1.41016h-.70508v-1.41211h-.70703v-1.41016zm77.6094 0v1.41016h-.70508v1.41211h-.70507v1.41016h-.70508v1.41211h-.70703v1.41016h-.70508v1.41211h-.70508v1.41016h-33.8652v1.41211h34.5703v-1.41211h.70508v-1.41016h.70703v-1.41211h.70508v-1.41016h.70507v-1.41211h.70508v-1.41016h.70703v-1.41211h1.41016v1.41211h.70703v1.41016h.70508v1.41211h.70508v1.41016h.70508v1.41211h.70703v1.41016h.70507v1.41211h68.4375v-1.41211h-67.7324v-1.41016h-.70508v-1.41211h-.70507v-1.41016h-.70703v-1.41211h-.70508v-1.41016h-.70508v-1.41211h-.70508v-1.41016h-1.41211zm-60.6758 9.87695v1.41211h11.2871v-1.41211h-5.64453zm11.2891 0v1.41211h11.2871v-1.41211h-5.64453zm124.178 0v1.41211h28.2207v-1.41211h-22.5762z"/><path d="m361.244 78.9375v1.41016h.70703v1.41211h.70508v1.41016h.70508v1.41211h.70508v1.41016h.70507v1.41211h.70704v1.41016h.70507v1.41211h86.0781v-1.41211h.70508v-1.41016h.70508v-1.41211h.70703v-1.41016h.70507v-1.41211h.70508v-1.41016h.70508v-1.41211h1.41211v1.41211h.70508v1.41016h.70508v1.41211h.70703v1.41016h.70508v1.41211h.70507v1.41016h.70508v1.41211h11.9941v-1.41211h-11.2871v-1.41016h-.70703v-1.41211h-.70508v-1.41016h-.70507v-1.41211h-.70508v-1.41016h-.70703v-1.41211h-.70508v-1.41016h-2.82227v1.41016h-.70508v1.41211h-.70507v1.41016h-.70703v1.41211h-.70508v1.41016h-.70508v1.41211h-.70508v1.41016h-84.668v-1.41016h-.70508v-1.41211h-.70507v-1.41016h-.70704v-1.41211h-.70507v-1.41016h-.70508v-1.41211h-.70508v-1.41016zm190.502 0v1.41016h-.70703v1.41211h-.70508v1.41016h-.70507v1.41211h-.70508v1.41016h-.70703v1.41211h-.70508v1.41016h-39.5098v1.41211h40.2148v-1.41211h.70703v-1.41016h.70508v-1.41211h.70507v-1.41016h.70508v-1.41211h.70703v-1.41016h.70508v-1.41211h1.41016v1.41211h.70508v1.41016h.70507v1.41211h.70704v1.41016h.70507v1.41211h.70508v1.41016h.70508v1.41211h28.9277v-1.41211h-28.2207v-1.41016h-.70703v-1.41211h-.70508v-1.41016h-.70508v-1.41211h-.70507v-1.41016h-.70704v-1.41211h-.70507v-1.41016h-1.41016zm101.6 0v1.41016h-.70508v1.41211h-.70703v1.41016h-.70507v1.41211h-.70508v1.41016h-.70508v1.41211h-.70703v1.41016h-28.2207v1.41211h28.9277v-1.41211h.70508v-1.41016h.70508v-1.41211h.70507v-1.41016h.70703v-1.41211h.70508v-1.41016h.70508v-1.41211h1.41211v1.41211h.70508v1.41016h.70508v1.41211h.70507v1.41016h.70704v1.41211h.70507v1.41016h.70508v1.41211h79.7266v-1.41211h-79.0215v-1.41016h-.70508v-1.41211h-.70508v-1.41016h-.70507v-1.41211h-.70704v-1.41016h-.70507v-1.41211h-.70508v-1.41016h-1.41211zm-179.211 9.87695v1.41211h11.2871v-1.41211h-5.64454zm11.2891 0v1.41211h11.2871v-1.41211h-5.64453zm11.2891 0v1.41211h11.2871v-1.41211h-5.64453zm90.3106 0v1.41211h11.2871v-1.41211h-5.64258zm11.2891 0v1.41211h11.2871v-1.41211h-5.64453zm11.2891 0v1.41211h11.2871v-1.41211h-5.64453zm129.822 0v1.41211h11.2871v-1.41211h-5.64453zm11.2891 0v1.41211h11.2871v-1.41211h-5.64453z"/><path d="m766.234 87.4035h-.70556v-1.41111h-.70556v-1.41112h-.70555v-1.41111h-.70556v-1.41111h-.70556v-1.41111h-.70555v-1.41112h1.41111v1.41112h.70556v1.41111h.70555v1.41111h.70556v1.41111h.70556v1.41112h.70555v1.41111h.70556v2.82222h-.70556v-1.41111h-.70555z"/>
      </g>
    </symbol>
  </defs>
</svg>
